<svg xmlns="http://www.w3.org/2000/svg" viewBox="0 0 116.35 116.35"><g    ><g   data-name="Layer 1"><path d="M58.18,0a58.18,58.18,0,1,0,58.17,58.18A58.25,58.25,0,0,0,58.18,0Zm0,4.66A53.32,53.32,0,0,1,94.92,19.31L63.59,46.91,41.87,14.6l-.28.14c4.84,12.82,9.68,25.64,14.61,38.68l-.12.1-25.69-4.3-.17.22L42.46,65.52,15,89.73A53.48,53.48,0,0,1,58.18,4.66Zm0,107A53.4,53.4,0,0,1,18.65,94.22L46,70.15,71.78,104l.27-.12L57.58,66.45l21.35,3.8.19-.27L66.86,51.76,98.92,23.53A53.48,53.48,0,0,1,58.18,111.7Z"/></g></g></svg>