<svg xmlns="http://www.w3.org/2000/svg" viewBox="0 0 116.35 116.35"><g    ><g   data-name="Layer 1"><path d="M58.18,116.35a58.18,58.18,0,1,1,58.17-58.17A58.24,58.24,0,0,1,58.18,116.35Zm0-111.69A53.52,53.52,0,1,0,111.7,58.18,53.58,53.58,0,0,0,58.18,4.66Z"/><path d="M57.3,49.49a9.94,9.94,0,1,0,9.94,9.94A10,10,0,0,0,57.3,49.49Z"/><path d="M75.07,72.27a56.7,56.7,0,0,0-.56-11.93A62.33,62.33,0,0,0,62.36,32.19L57.3,25.44l-5.07,6.75A62.33,62.33,0,0,0,40.08,60.34a57.37,57.37,0,0,0-.55,11.93A19.45,19.45,0,0,0,31.45,88v5.33l4.13-3a17.76,17.76,0,0,1,6.85-2.7c.75,2.35,1.31,3.69,2.06,5.73C45.8,92.5,49,88.6,55.31,87.84v5.52h4V87.84c6.37.77,9.52,4.67,10.82,5.53.75-2.06,1.31-3.38,2.06-5.73A17.76,17.76,0,0,1,79,90.34l4.12,3V88A19.44,19.44,0,0,0,75.07,72.27ZM35.6,85.74A15.32,15.32,0,0,1,40,77.06a61.67,61.67,0,0,0,1.32,6.74A21.71,21.71,0,0,0,35.6,85.74Zm32.63,1.14a20.71,20.71,0,0,0-8.94-3V73.48h-4V83.84a20.8,20.8,0,0,0-9,3c-5.93-18.08-2.76-36.56,9.06-52.3l1.88-2.52,1.88,2.52C71,50.32,74.17,68.8,68.23,86.88Zm5-3.08a61.67,61.67,0,0,0,1.32-6.74A15.32,15.32,0,0,1,79,85.74,22,22,0,0,0,73.28,83.8Z"/><path d="M23.37,41.53H35.43v4H23.37Z"/><path d="M79.17,41.53H91.23v4H79.17Z"/><path d="M27.51,27.44l10.81,5-1.68,3.6L25.83,31Z"/><path d="M87.09,59.61l-10.81-5L78,51l10.81,5Z"/><path d="M25.83,56l10.81-5,1.68,3.61-10.81,5Z"/><path d="M87.09,27.44,88.77,31,78,36.08l-1.68-3.6Z"/></g></g></svg>