<svg xmlns="http://www.w3.org/2000/svg" viewBox="0 0 116.35 116.35"><defs><style>.cls-1{opacity:0.3;}</style></defs><g    ><g   data-name="Layer 1"><path d="M58.18,116.35a58.18,58.18,0,1,1,58.17-58.17A58.24,58.24,0,0,1,58.18,116.35Zm0-111.69A53.52,53.52,0,1,0,111.7,58.18,53.58,53.58,0,0,0,58.18,4.66Z"/><path d="M92,47.38l-8,3.1A27.66,27.66,0,1,1,65.5,31.31l-.32-.52.5-1L68,25.19l.89-1.82A36.2,36.2,0,1,0,92,47.38Z"/><path d="M80.45,30.45l-.36.73-2.27,4.6-.49,1-1.11.12-.69.07a27.39,27.39,0,0,1,7.32,10.34l8-3.1a36.08,36.08,0,0,0-10.2-14.16l-.2.39Z"/><path d="M91,44.62l0,0,0,.06S91,44.63,91,44.62Z"/><path d="M76.41,49.79a20.81,20.81,0,0,0-5.5-7.56l-2.47,4.43a15.89,15.89,0,0,1,3.35,4.92Z"/><path d="M49.72,38.45A20.86,20.86,0,1,0,77.47,53l-4.67,1.8a15.91,15.91,0,1,1-10.75-12l2.43-4.37A20.74,20.74,0,0,0,49.72,38.45Z"/><path d="M54,49.59a8.92,8.92,0,1,0,12.12,7.76l-4.62,1.77-.83,1.51a3.48,3.48,0,0,1-.38.68L58.56,62.7l-.05,0A3.8,3.8,0,0,1,57.1,63a3.72,3.72,0,0,1-3.5-2.37,3.67,3.67,0,0,1,0-2.53v0a3.79,3.79,0,0,1,.47-.89l4.48-8.06A8.87,8.87,0,0,0,54,49.59Z"/><path d="M64.8,53.22l-.75,1.34,1.22-.47A9.09,9.09,0,0,0,64.8,53.22Z"/><path class="cls-1" d="M92.09,47.33l-1-2.68c.35.9.65,1.81.92,2.73Z"/><path class="cls-1" d="M90.88,44.21h0l.15.38Z"/><path d="M69.77,26.09l-2.27,4.6,1.88,3.09L55.77,58.26a1.61,1.61,0,0,0-.27.48h0a1.6,1.6,0,0,0,0,1.14A1.68,1.68,0,0,0,57.1,61a1.79,1.79,0,0,0,.68-.13,1.72,1.72,0,0,0,.77-.57h0v0a2,2,0,0,0,.27-.49l13.61-24.5L76,34.88l2.27-4.6-3.55.38.85-1.73,3.57-.38L81.41,24l-3.57.38.86-1.73,3.59-.38,2.27-4.61L81,18l.09-.19L78,16.3l-.09.17-1.85-3L73.79,18l1.86,3.05-.87,1.75-1.86-3.07-2.27,4.61,1.86,3.06-.86,1.76Z"/><path d="M70.65,24.36l2.27-4.61,1.86,3.07.87-1.75L73.79,18l2.27-4.6,1.85,3L78,16.3l3.06,1.51L81,18l3.59-.39-2.27,4.61-3.59.38-.86,1.73L81.41,24l-2.27,4.6-3.57.38-.85,1.73,3.55-.38L76,34.88l-3.55.38L58.84,59.76a2,2,0,0,1-.27.49v0h0a1.72,1.72,0,0,1-.77.57,1.79,1.79,0,0,1-.68.13,1.68,1.68,0,0,1-1.6-1.07,1.6,1.6,0,0,1,0-1.14h0a1.61,1.61,0,0,1,.27-.48L69.38,33.78,67.5,30.69l2.27-4.6,1.88,3.09.86-1.76Z"/></g></g></svg>