<svg xmlns="http://www.w3.org/2000/svg" viewBox="0 0 116.35 116.35"><g    ><g   data-name="Layer 1"><path d="M60.54,63.77a1.05,1.05,0,0,0-1.34-.63L56.91,64A18,18,0,0,0,54,60.3l1.39-2a1,1,0,0,0-.28-1.45L51.7,54.47a1,1,0,0,0-1.46.27l-1.38,2a17.22,17.22,0,0,0-4.46-1.29L44.32,53a1.05,1.05,0,0,0-1.07-1l-4.18.13a1,1,0,0,0-1,1.08l.08,2.48a16,16,0,0,0-4.37,1.57l-1.52-2a1,1,0,0,0-1.46-.18l-3.31,2.56a1,1,0,0,0-.18,1.46l1.51,1.95a17.63,17.63,0,0,0-2.62,3.84l-2.36-.69a1,1,0,0,0-1.29.71l-1.17,4a1.05,1.05,0,0,0,.71,1.3l2.36.68a17.17,17.17,0,0,0-.1,2.38,18.93,18.93,0,0,0,.22,2.28l-2.29.82a1,1,0,0,0-.63,1.34l1.41,3.93a1,1,0,0,0,1.33.63l2.29-.82a17.72,17.72,0,0,0,2.85,3.7l-1.36,2a1,1,0,0,0,.28,1.45L31.89,91a1,1,0,0,0,1.45-.28l1.35-2a17.29,17.29,0,0,0,4.5,1.32l.07,2.39a1.06,1.06,0,0,0,1.08,1l4.18-.13a1,1,0,0,0,1-1.08l-.07-2.38a17,17,0,0,0,2.22-.62,18.76,18.76,0,0,0,2.2-1l1.45,1.88a1,1,0,0,0,1.47.18l3.3-2.55a1.05,1.05,0,0,0,.19-1.47l-1.46-1.88a17.44,17.44,0,0,0,2.64-3.89l2.29.67a1,1,0,0,0,1.29-.71l1.17-4a1,1,0,0,0-.71-1.29l-2.32-.68a15.89,15.89,0,0,0,.09-2.29A17.12,17.12,0,0,0,59,69.85L61.32,69A1,1,0,0,0,62,67.7ZM44.68,80.9a8.48,8.48,0,1,1,5.15-10.84A8.48,8.48,0,0,1,44.68,80.9Z"/><path d="M88.74,60.49a.65.65,0,0,0-.84-.39l-1.45.51a11.26,11.26,0,0,0-1.81-2.31L85.51,57a.66.66,0,0,0-.17-.92l-2.18-1.48a.66.66,0,0,0-.92.17l-.87,1.29a11.17,11.17,0,0,0-2.82-.82l0-1.56a.66.66,0,0,0-.68-.64l-2.63.08a.67.67,0,0,0-.64.69l0,1.56a11.5,11.5,0,0,0-1.39.39,11,11,0,0,0-1.36.6l-1-1.24A.65.65,0,0,0,70,55l-2.08,1.62a.65.65,0,0,0-.12.92l.95,1.23a11.08,11.08,0,0,0-1.65,2.43l-1.49-.44a.66.66,0,0,0-.82.45L64,63.76a.66.66,0,0,0,.45.82L66,65a10.75,10.75,0,0,0-.06,1.5A11.33,11.33,0,0,0,66,68l-1.45.52a.67.67,0,0,0-.4.85l.9,2.48a.65.65,0,0,0,.84.39l1.44-.51A10.75,10.75,0,0,0,69.16,74l-.86,1.26a.67.67,0,0,0,.18.92l2.18,1.48a.65.65,0,0,0,.91-.17l.85-1.25a11,11,0,0,0,2.85.83l0,1.51a.65.65,0,0,0,.68.63l2.64-.08a.66.66,0,0,0,.64-.68l0-1.5a10.7,10.7,0,0,0,1.4-.39A10.25,10.25,0,0,0,82,76l.92,1.19a.67.67,0,0,0,.93.12l2.08-1.62a.67.67,0,0,0,.12-.93l-.92-1.18a11.25,11.25,0,0,0,1.66-2.45l1.45.42a.67.67,0,0,0,.82-.45l.73-2.53a.66.66,0,0,0-.44-.82l-1.47-.43A11.48,11.48,0,0,0,88,65.84a12.26,12.26,0,0,0-.15-1.51l1.43-.51a.66.66,0,0,0,.4-.85Zm-10,10.81A5.35,5.35,0,1,1,82,64.46,5.35,5.35,0,0,1,78.73,71.3Z"/><path d="M58.18,116.35a58.18,58.18,0,1,1,58.17-58.17A58.24,58.24,0,0,1,58.18,116.35Zm0-111.69A53.52,53.52,0,1,0,111.7,58.18,53.58,53.58,0,0,0,58.18,4.66Z"/><path d="M76.44,25.43a1,1,0,0,0-1.33-.63l-2.29.82A17.91,17.91,0,0,0,70,22l1.38-2a1,1,0,0,0-.27-1.45l-3.45-2.35a1.06,1.06,0,0,0-1.46.28l-1.38,2a17.34,17.34,0,0,0-4.46-1.29l-.08-2.48a1,1,0,0,0-1.08-1L55,13.79a1,1,0,0,0-1,1.08l.08,2.48a16,16,0,0,0-4.37,1.57l-1.52-2a1,1,0,0,0-1.46-.18l-3.31,2.55a1.06,1.06,0,0,0-.18,1.47l1.51,1.95a17.63,17.63,0,0,0-2.62,3.84l-2.36-.69a1,1,0,0,0-1.29.71l-1.17,4A1,1,0,0,0,38,31.9l2.36.69a15.63,15.63,0,0,0-.1,2.38,17.26,17.26,0,0,0,.22,2.28l-2.29.82a1,1,0,0,0-.63,1.34L39,43.34a1,1,0,0,0,1.33.63l2.29-.82a17.4,17.4,0,0,0,2.85,3.69l-1.36,2a1,1,0,0,0,.28,1.45l3.45,2.34a1,1,0,0,0,1.45-.27l1.35-2a17.17,17.17,0,0,0,4.5,1.32l.07,2.38a1.06,1.06,0,0,0,1.08,1L60.43,55a1,1,0,0,0,1-1.08l-.07-2.38a17.43,17.43,0,0,0,2.22-.62,18.76,18.76,0,0,0,2.2-1l1.45,1.88a1,1,0,0,0,1.47.18L72,49.44A1,1,0,0,0,72.2,48L70.74,46.1a17.44,17.44,0,0,0,2.64-3.89l2.29.67A1,1,0,0,0,77,42.17l1.17-4a1.05,1.05,0,0,0-.71-1.3l-2.32-.67a17.56,17.56,0,0,0,.09-2.3A18.63,18.63,0,0,0,75,31.51l2.28-.81a1.06,1.06,0,0,0,.63-1.34ZM60.59,42.56a8.49,8.49,0,1,1,5.15-10.84A8.49,8.49,0,0,1,60.59,42.56Z"/></g></g></svg>