<svg xmlns="http://www.w3.org/2000/svg" viewBox="0 0 85.31 85.31"><defs><style>.cls-1{fill:#066140;}.cls-2,.cls-4{fill:#fff;}.cls-3,.cls-5{fill:none;}.cls-3,.cls-4,.cls-5{stroke:#066140;stroke-width:2px;}.cls-3{stroke-linecap:round;stroke-linejoin:round;}.cls-4,.cls-5{stroke-miterlimit:10;}</style></defs><g    ><g   data-name="Layer 1"><circle class="cls-1" cx="42.65" cy="42.65" r="42.65"/><circle class="cls-2" cx="36.84" cy="37.22" r="25.65"/><circle class="cls-3" cx="36.98" cy="37.43" r="20.11"/><polyline class="cls-3" points="37.48 25.26 37.28 36.98 26.61 43.4"/><line class="cls-3" x1="37.47" y1="17.38" x2="37.52" y2="20.1"/><line class="cls-3" x1="54.4" y1="27.54" x2="52.22" y2="29.17"/><line class="cls-3" x1="47.28" y1="20.31" x2="45.92" y2="22.38"/><path class="cls-4" d="M36.94,69.36h0a8.09,8.09,0,0,1,0-11.41L46.86,48l10.69-10.7a8.11,8.11,0,0,1,11.41,0h0a8.09,8.09,0,0,1,0,11.41L48.35,69.36A8.09,8.09,0,0,1,36.94,69.36Z"/><line class="cls-5" x1="58.39" y1="58.85" x2="47.41" y2="48.03"/><circle class="cls-4" cx="62.5" cy="62.87" r="11.62"/><line class="cls-5" x1="62.5" y1="52.44" x2="62.5" y2="74.49"/></g></g></svg>