<svg xmlns="http://www.w3.org/2000/svg" xmlns:xlink="http://www.w3.org/1999/xlink" viewBox="0 0 424.38 152.26"><defs><style>.cls-1{fill:url(#Новый_образец_градиента_51);}.cls-2{fill:url(#Новый_образец_градиента_51-2);}.cls-3{fill:url(#Новый_образец_градиента_51-3);}.cls-4{fill:url(#Новый_образец_градиента_51-4);}.cls-5{fill:url(#Новый_образец_градиента_51-5);}.cls-6{fill:url(#Новый_образец_градиента_51-6);}.cls-7{fill:url(#Новый_образец_градиента_51-7);}.cls-8{fill:url(#Новый_образец_градиента_51-8);}.cls-9{fill:url(#Новый_образец_градиента_51-9);}.cls-10{fill:url(#Новый_образец_градиента_51-10);}.cls-11{fill:url(#Новый_образец_градиента_51-11);}.cls-12{fill:url(#Новый_образец_градиента_51-12);}.cls-13{fill:url(#Новый_образец_градиента_51-13);}.cls-14{fill:#fff;}</style><linearGradient id="Новый_образец_градиента_51" x1="159.02" y1="116.77" x2="213.01" y2="2.03" gradientUnits="userSpaceOnUse"><stop offset="0.01" stop-color="#5e2b0b"/><stop offset="0.08" stop-color="#82511a"/><stop offset="0.19" stop-color="#ae7f2b"/><stop offset="0.3" stop-color="#d1a43a"/><stop offset="0.39" stop-color="#eabe44"/><stop offset="0.48" stop-color="#face4a"/><stop offset="0.54" stop-color="#ffd44c"/><stop offset="0.6" stop-color="#f6ca48"/><stop offset="0.69" stop-color="#ddb03e"/><stop offset="0.8" stop-color="#b5862e"/><stop offset="0.93" stop-color="#7d4c18"/><stop offset="1" stop-color="#5e2b0b"/></linearGradient><linearGradient id="Новый_образец_градиента_51-2" x1="148.64" y1="111.88" x2="202.62" y2="-2.85" xlink:href="#Новый_образец_градиента_51"/><linearGradient id="Новый_образец_градиента_51-3" x1="132.32" y1="104.19" x2="186.3" y2="-10.53" xlink:href="#Новый_образец_градиента_51"/><linearGradient id="Новый_образец_градиента_51-4" x1="128.62" y1="102.46" x2="182.61" y2="-12.27" xlink:href="#Новый_образец_градиента_51"/><linearGradient id="Новый_образец_градиента_51-5" x1="140.65" y1="108.11" x2="194.63" y2="-6.61" xlink:href="#Новый_образец_градиента_51"/><linearGradient id="Новый_образец_градиента_51-6" x1="172.94" y1="123.3" x2="226.91" y2="8.59" xlink:href="#Новый_образец_градиента_51"/><linearGradient id="Новый_образец_градиента_51-7" x1="193.53" y1="132.99" x2="247.51" y2="18.27" xlink:href="#Новый_образец_градиента_51"/><linearGradient id="Новый_образец_градиента_51-8" x1="201.7" y1="136.84" x2="255.69" y2="22.12" xlink:href="#Новый_образец_градиента_51"/><linearGradient id="Новый_образец_градиента_51-9" x1="214.3" y1="142.77" x2="268.28" y2="28.04" xlink:href="#Новый_образец_градиента_51"/><linearGradient id="Новый_образец_градиента_51-10" x1="191.2" y1="131.94" x2="245.2" y2="17.18" xlink:href="#Новый_образец_градиента_51"/><linearGradient id="Новый_образец_градиента_51-11" x1="120.03" y1="98.41" x2="174" y2="-16.31" xlink:href="#Новый_образец_градиента_51"/><linearGradient id="Новый_образец_градиента_51-12" x1="113.47" y1="95.3" x2="167.44" y2="-19.39" xlink:href="#Новый_образец_градиента_51"/><linearGradient id="Новый_образец_градиента_51-13" x1="127.84" y1="102.08" x2="181.82" y2="-12.64" xlink:href="#Новый_образец_градиента_51"/></defs><g id="Слой_2" data-name="Слой 2"><g id="Layer_1" data-name="Layer 1"><path class="cls-1" d="M204.51,20.84h0v0c4-.61,7.59-3.61,9.37-8.23A16.36,16.36,0,0,0,213.59,0h0a12.33,12.33,0,0,0-8.84,7.07,16.31,16.31,0,0,0-.24,13.77Z"/><path class="cls-2" d="M189.25,48.58v0h0c7.06-5.28,11.63-14.54,11.31-24.87A29.67,29.67,0,0,0,189.84,1.26v0C183.52,6,179.13,14,178.57,23.33,178,33.63,182.31,43,189.25,48.58Z"/><path class="cls-3" d="M176.6,53.16v0h0v0h0a29.12,29.12,0,0,0-3.23-26.32A24.08,24.08,0,0,0,153.51,16h0a29,29,0,0,0,1.79,24.14C160,48.58,168.19,53.19,176.6,53.16Z"/><path class="cls-4" d="M145.32,66.86a22.3,22.3,0,0,0,23.57-2.57v0h0v0h0c-1.84-8.64-7.71-16-16-19a22.47,22.47,0,0,0-21.33,3.52h0A25.66,25.66,0,0,0,145.32,66.86Z"/><path class="cls-5" d="M153.82,92.72c7.41-1.62,13.11-7.36,15.52-14.57h0v0h0a19.65,19.65,0,0,0-20-4.79,21.67,21.67,0,0,0-13.54,14l0,0A19.72,19.72,0,0,0,153.82,92.72Z"/><path class="cls-6" d="M203.11,53.16v0h0l0,0c8.4,0,16.59-4.58,21.25-13A29.06,29.06,0,0,0,226.24,16h0a24.09,24.09,0,0,0-19.93,10.81,29.09,29.09,0,0,0-3.2,26.32Z"/><path class="cls-7" d="M226.84,45.27c-8.31,3-14.15,10.38-16,19h0v0h0v0a22.34,22.34,0,0,0,23.6,2.57,25.75,25.75,0,0,0,13.75-18.07h0A22.46,22.46,0,0,0,226.84,45.27Z"/><path class="cls-8" d="M230.37,73.32a19.65,19.65,0,0,0-20,4.79h0v0h0c2.4,7.21,8.12,12.95,15.52,14.57a19.68,19.68,0,0,0,18-5.35v0A21.85,21.85,0,0,0,230.37,73.32Z"/><path class="cls-9" d="M257.7,73.26a12.22,12.22,0,0,0-8.86-7,11.92,11.92,0,0,0-11.37,4.58h0a12.1,12.1,0,0,0,10,7.17,11.92,11.92,0,0,0,10.19-4.71Z"/><path class="cls-10" d="M228.73,39.45h0a10.93,10.93,0,0,0,11.84-1.11,14.93,14.93,0,0,0,5.68-10.75v0a10.66,10.66,0,0,0-10.77.43,14.75,14.75,0,0,0-6.75,11.4Z"/><path class="cls-11" d="M142.55,70.8h0a11.92,11.92,0,0,0-11.35-4.58,12.08,12.08,0,0,0-8.83,7h0A11.91,11.91,0,0,0,132.47,78,12.13,12.13,0,0,0,142.55,70.8Z"/><path class="cls-12" d="M139.51,38.34a10.82,10.82,0,0,0,11.78,1.11h0a14.66,14.66,0,0,0-6.72-11.4,10.68,10.68,0,0,0-10.78-.43v0A15,15,0,0,0,139.51,38.34Z"/><path class="cls-13" d="M175.49,20.82v0h0a16.2,16.2,0,0,0-.22-13.77A12.17,12.17,0,0,0,166.43,0h0a16.77,16.77,0,0,0-.31,12.59C167.94,17.21,171.56,20.21,175.49,20.82Z"/><path class="cls-14" d="M230.65,147.91c-10.34-2.49-20-7.3-22.32-9s-6.09-6-6.8-9.4a18.07,18.07,0,0,1-.32-2.34,31.89,31.89,0,0,1,.32-8.78c3.4-17.66,26.88-21.38,27.74-22.1,1.64-1.4-8.7-1.1-18,2.6-4.67,1.84-8.07,2.28-10-.07-1.5-1.76-1.72-3.83-1.18-9,.13-1.26.33-2.94.6-4.78,2.3-16.2,2.82-25.89,2.24-26.29-1.48-1.08-.79,1.79-3,10-1.21,4.39-4.31,9.9-7.89,9.9s-6.49-5.26-9.1-10c-4.09-7.18-9.09-12.5-8-9.26.33,1,7.21,12.52,10.26,26.42,1,7.69.71,10.73-3,12.92s-11.3-1.34-16.84-2.09c-8.48-1.26-11.37-1.14-9,.21.81.51,17,4.73,25.15,14.46a14.82,14.82,0,0,1,2.81,7.6,28.3,28.3,0,0,1-2.33,13.78c-1.63,3.39-4,5.21-9.08,7.9a77.77,77.77,0,0,1-17,6.88c-7.73,2-13,4.08-3.24,3.35s22.79-6,20.64-3.25c-1.64,2.13-8.38,6.77,3.63,2.13,13.27-5.76,19.71-5.13,31.84.61,8.63,3.78,6.34,1.32,3.45-1.48-2.7-2.93,4.09.31,16.49,1.73C240.87,151.57,240.1,150,230.65,147.91Z"/><path class="cls-14" d="M3.77,124c1.64-2.87,10.24-19.83,11-21h.06c2.62,4.24,9.7,17.71,11.73,20.81L24,125.54c-.6-1.14-3.77-7.26-4.1-7.74l-10.36.42c-.36.56-2.81,6.33-3.32,7.35ZM19,115.89c-.33-.66-4-7.62-4.3-8.1-.45.66-3.89,8-4.15,8.46Z"/><path class="cls-14" d="M35.89,125c.06-1.29.15-8.48.15-10.61v-3.28c0-.69-.09-6.57-.09-7a40.71,40.71,0,0,1,5.62.39c4,.66,6.51,2.57,6.51,5.73,0,4.1-3.77,7.41-9.44,8.54v1.77c0,.59,0,3.85.06,4.48Zm2.75-8.34c3.76-.8,6.54-2.71,6.54-6,0-.9-.51-4.27-6.54-4.36Z"/><path class="cls-14" d="M57.54,125c.15-2.24,1-19,1.1-22.1h.06c.84.95,15.29,16,16.25,16.93,0-.84.18-14.9.21-15.89l2.78.15c-.12,1.79-.69,14-.81,21.53h-.06c-.81-.8-15.92-16.3-16.46-17.05h-.06c0,1.05-.24,15.65-.21,16.64Z"/><path class="cls-14" d="M86.44,124c1.64-2.87,10.24-19.83,11-21h.06c2.63,4.24,9.7,17.71,11.73,20.81l-2.53,1.68c-.6-1.14-3.77-7.26-4.1-7.74l-10.36.42c-.36.56-2.81,6.33-3.31,7.35Zm15.23-8.12c-.33-.66-4-7.62-4.3-8.1-.45.66-3.89,8-4.15,8.46Z"/><path class="cls-14" d="M117.79,123.3c2.92-.6,6.66-2.1,6.66-4.52,0-1.49-1-2.26-3.11-3.43-2.54-1.37-4.3-2.63-4.3-4.75,0-3.16,4.42-6.12,8.51-7l.63,2.3c-1.82.3-6.24,1.74-6.24,4.24,0,1.56,2.12,2.51,3.37,3.26,2.27,1.34,4.09,2.3,4.09,4.72,0,2.93-3.1,6.12-8.84,7.47Z"/><path class="cls-14" d="M245.39,125c.15-2.24,1-19,1.1-22.1h.06c.84.95,15.29,16,16.25,16.93,0-.84.18-14.9.21-15.89l2.78.15c-.12,1.79-.69,14-.81,21.53h-.06c-.81-.8-15.92-16.3-16.46-17.05h-.06c0,1.05-.24,15.65-.2,16.64Z"/><path class="cls-14" d="M274.29,124c1.64-2.87,10.24-19.83,11-21h.06c2.63,4.24,9.7,17.71,11.74,20.81l-2.54,1.68c-.6-1.14-3.77-7.26-4.1-7.74l-10.36.42c-.36.56-2.81,6.33-3.31,7.35Zm15.23-8.12c-.33-.66-4-7.62-4.3-8.1-.45.66-3.88,8-4.15,8.46Z"/><path class="cls-14" d="M308.44,125c.15-.78.18-9.5.18-14.25V106.3c-3.43,0-7.67.15-8.45.27V104c1.2.24,8.27.36,8.6.36h2.6c.57,0,7.08-.12,8.39-.36v2.54c-.41-.12-5.94-.27-8.45-.27v4.93c0,6.06.3,13.17.36,13.77Z"/><path class="cls-14" d="M330.15,111.17c0,4.84.21,7,1.37,9.11a5.63,5.63,0,0,0,5.17,2.9,5.89,5.89,0,0,0,5.2-2.84c1.43-2.24,1.46-5.89,1.46-10.58v-1c0-2.06-.12-3.82-.18-4.93H346c0,.66,0,2.63,0,5v1.37c0,5.74-.33,9.38-2.57,12.16a8.53,8.53,0,0,1-7.17,3.16,7.72,7.72,0,0,1-7-3.55c-1.4-2.24-1.91-4.57-1.91-11.83v-1.61c0-1.37,0-3.55,0-4.24h2.84c-.06.78-.15,2.18-.15,4.9Z"/><path class="cls-14" d="M360.66,115.86c0,1.13.09,8.69.15,9.14h-2.9c.12-.72.07-10.19.07-10.81v-2.45c0-.9-.07-7.08-.16-7.65a56.36,56.36,0,0,1,6.22.3c3.94.48,6.18,2.15,6.18,4.69s-1.7,4.51-4.15,6.06c.74,1,6.12,7.68,7,8.57l-2.27,1.83c-.33-.42-7.05-9.23-7.95-10.49,1.5-.8,4.48-2.63,4.48-5.55,0-1.35-1-3.35-6.63-3.41Z"/><path class="cls-14" d="M379.23,124c1.64-2.87,10.24-19.83,11-21h.06c2.63,4.24,9.71,17.71,11.74,20.81l-2.54,1.68c-.6-1.14-3.76-7.26-4.09-7.74l-10.37.42c-.36.56-2.8,6.33-3.31,7.35Zm15.23-8.12c-.33-.66-4-7.62-4.3-8.1-.45.66-3.88,8-4.15,8.46Z"/><path class="cls-14" d="M414.4,104.09c-.12.66-.24,6.54-.24,10.3v8.46c.72,0,4.24,0,7.11-.12v2.57c-.42,0-9.29-.3-10-.3.23-1.58.23-8,.23-8.69v-4c0-.47-.05-7.67-.11-8.24Z"/><path class="cls-14" d="M422.38,144.4H248a2,2,0,1,1,0-4H422.38a2,2,0,1,1,0,4Z"/><path class="cls-14" d="M130.52,144.43H2a2,2,0,0,1,0-4.05h128.5a2,2,0,0,1,0,4.05Z"/><path class="cls-14" d="M116.56,88.53H1a1,1,0,0,1,0-1.9H116.56a1,1,0,1,1,0,1.9Z"/><path class="cls-14" d="M422.92,88.65H265.33a1.07,1.07,0,1,1,0-2.14H422.92a1.07,1.07,0,0,1,0,2.14Z"/></g></g></svg>